<?xml version="1.0" standalone="no"?>
<!DOCTYPE svg PUBLIC "-//W3C//DTD SVG 20010904//EN" "http://www.w3.org/TR/2001/REC-SVG-20010904/DTD/svg10.dtd">
<svg version="1.0" 
    xmlns="http://www.w3.org/2000/svg" width="48.000000pt" height="48.000000pt" viewBox="0 0 48.000000 48.000000" preserveAspectRatio="MidYMid meet">
    <g transform="translate(0.000000,48.000000) scale(0.100000,-0.100000)" fill="#000000" stroke="none">
        <path d="M10 240 l0 -230 230 0 230 0 0 230 0 230 -230 0 -230 0 0 -230z m324 164 c11 -4 16 -19 16 -45 0 -46 -18 -52 -27 -9 -6 35 -34 46 -91 37 -55 -9 -94 -54 -100 -115 -11 -114 56 -187 160 -174 20 2 28 9 30 29 5 45 28 40 28 -6 0 -40 0 -40 -46 -47 -95 -14 -173 20 -205 90 -57 125 26 246 167 246 29 0 59 -3 68 -6z"/>
    </g>
</svg>